NerdfontsNF-Regular.ufo
<glyph name="highVoltageSign" format="2">
  <advance width="1200"/>
  <unicode hex="26A1"/>
  <note>
uni26A1
</note>
  <outline>
    <contour>
      <point x="519" y="629" type="line"/>
      <point x="276" y="63" type="line"/>
      <point x="1004" y="791" type="line"/>
      <point x="681" y="791" type="line"/>
      <point x="923" y="1357" type="line"/>
      <point x="196" y="629" type="line"/>
    </contour>
  </outline>
</glyph>
<glyph name="uniF479" format="2">
  <advance width="1200"/>
  <unicode hex="F479"/>
  <note>
uniF479
</note>
  <outline>
    <contour>
      <point x="377" y="784" type="line"/>
      <point x="600" y="487" type="line"/>
      <point x="823" y="784" type="line"/>
      <point x="674" y="784" type="line"/>
      <point x="674" y="933" type="line"/>
      <point x="526" y="933" type="line"/>
      <point x="526" y="784" type="line"/>
    </contour>
  </outline>
</glyph>
<glyph name="uniF53C" format="2">
  <advance width="1200"/>
  <unicode hex="F53C"/>
  <note>
uniF53C
</note>
  <outline>
    <contour>
      <point x="101" y="1209" type="line"/>
      <point x="101" y="511" type="line"/>
      <point x="799" y="511" type="line"/>
      <point x="799" y="1209" type="line"/>
      <point x="101" y="1209" type="line"/>
    </contour>
    <contour>
      <point x="1099" y="909" type="line"/>
      <point x="900" y="909" type="line"/>
      <point x="900" y="811" type="line"/>
      <point x="1001" y="811" type="line"/>
      <point x="1001" y="309" type="line"/>
      <point x="499" y="309" type="line"/>
      <point x="499" y="410" type="line"/>
      <point x="401" y="410" type="line"/>
      <point x="401" y="211" type="line"/>
      <point x="1099" y="211" type="line"/>
      <point x="1099" y="909" type="line"/>
    </contour>
  </outline>
</glyph>
<glyph name="uniF55D" format="2">
  <advance width="1200"/>
  <unicode hex="F55D"/>
  <note>
uniF55D
</note>
  <outline>
    <contour>
      <point x="701" y="314" type="line"/>
      <point x="701" y="764" type="line"/>
      <point x="874" y="590" type="line"/>
      <point x="996" y="710" type="line"/>
      <point x="600" y="1106" type="line"/>
      <point x="204" y="710" type="line"/>
      <point x="326" y="590" type="line"/>
      <point x="499" y="764" type="line"/>
      <point x="499" y="314" type="line"/>
      <point x="701" y="314" type="line"/>
    </contour>
  </outline>
</glyph>
<glyph name="uniF5BF" format="2">
  <advance width="1200"/>
  <unicode hex="F5BF"/>
  <note>
uniF5BF
</note>
  <outline>
    <contour>
      <point x="851" y="1160" type="line"/>
      <point x="893" y="1160"/>
      <point x="949" y="1104"/>
      <point x="949" y="1059" type="qcurve" smooth="yes"/>
      <point x="949" y="260" type="line"/>
      <point x="600" y="410" type="line"/>
      <point x="251" y="260" type="line"/>
      <point x="251" y="1059" type="line" smooth="yes"/>
      <point x="251" y="1101"/>
      <point x="307" y="1160"/>
      <point x="349" y="1160" type="qcurve" smooth="yes"/>
      <point x="851" y="1160" type="line"/>
    </contour>
  </outline>
</glyph>
<glyph name="uniF5F7" format="2">
  <advance width="1200"/>
  <unicode hex="F5F7"/>
  <note>
uniF5F7
</note>
  <outline>
    <contour>
      <point x="851" y="288" type="line"/>
      <point x="680" y="457" type="line"/>
      <point x="750" y="527" type="line"/>
      <point x="921" y="358" type="line"/>
      <point x="851" y="288" type="line"/>
    </contour>
    <contour>
      <point x="375" y="907" type="line"/>
      <point x="600" y="1132" type="line"/>
      <point x="825" y="907" type="line"/>
      <point x="649" y="907" type="line"/>
      <point x="649" y="588" type="line"/>
      <point x="349" y="288" type="line"/>
      <point x="279" y="358" type="line"/>
      <point x="551" y="628" type="line"/>
      <point x="551" y="907" type="line"/>
      <point x="375" y="907" type="line"/>
    </contour>
  </outline>
</glyph>
<glyph name="uniF5F9" format="2">
  <advance width="1200"/>
  <unicode hex="F5F9"/>
  <note>
uniF5F9
</note>
  <outline>
    <contour>
      <point x="975" y="1015" type="line"/>
      <point x="394" y="433" type="line"/>
      <point x="724" y="433" type="line"/>
      <point x="724" y="335" type="line"/>
      <point x="225" y="335" type="line"/>
      <point x="225" y="834" type="line"/>
      <point x="323" y="834" type="line"/>
      <point x="323" y="504" type="line"/>
      <point x="905" y="1085" type="line"/>
      <point x="975" y="1015" type="line"/>
    </contour>
  </outline>
</glyph>
<glyph name="uniF62C" format="2">
  <advance width="1200"/>
  <unicode hex="F62C"/>
  <note>
uniF62C
</note>
  <outline>
    <contour>
      <point x="19" y="654" type="line"/>
      <point x="89" y="724" type="line"/>
      <point x="368" y="445" type="line"/>
      <point x="297" y="375" type="line"/>
      <point x="19" y="654" type="line"/>
    </contour>
    <contour>
      <point x="1108" y="1045" type="line"/>
      <point x="1181" y="975" type="line"/>
      <point x="581" y="375" type="line"/>
      <point x="300" y="654" type="line"/>
      <point x="372" y="724" type="line"/>
      <point x="581" y="515" type="line"/>
      <point x="1108" y="1045" type="line"/>
    </contour>
    <contour>
      <point x="897" y="975" type="line"/>
      <point x="581" y="656" type="line"/>
      <point x="508" y="726" type="line"/>
      <point x="827" y="1045" type="line"/>
      <point x="897" y="975" type="line"/>
    </contour>
  </outline>
</glyph>
<glyph name="uniF63B" format="2">
  <advance width="1200"/>
  <unicode hex="F63B"/>
  <note>
uniF63B
</note>
  <outline>
    <contour>
      <point x="829" y="1045" type="line"/>
      <point x="600" y="815" type="line"/>
      <point x="370" y="1045" type="line"/>
      <point x="300" y="975" type="line"/>
      <point x="600" y="675" type="line"/>
      <point x="900" y="975" type="line"/>
      <point x="829" y="1045" type="line"/>
    </contour>
    <contour>
      <point x="829" y="745" type="line"/>
      <point x="600" y="515" type="line"/>
      <point x="370" y="745" type="line"/>
      <point x="300" y="675" type="line"/>
      <point x="600" y="375" type="line"/>
      <point x="900" y="675" type="line"/>
      <point x="829" y="745" type="line"/>
    </contour>
  </outline>
</glyph>
<glyph name="uniF63E" format="2">
  <advance width="1200"/>
  <unicode hex="F63E"/>
  <note>
uniF63E
</note>
  <outline>
    <contour>
      <point x="370" y="375" type="line"/>
      <point x="600" y="604" type="line"/>
      <point x="829" y="375" type="line"/>
      <point x="900" y="445" type="line"/>
      <point x="600" y="745" type="line"/>
      <point x="300" y="445" type="line"/>
      <point x="370" y="375" type="line"/>
    </contour>
    <contour>
      <point x="370" y="675" type="line"/>
      <point x="600" y="904" type="line"/>
      <point x="829" y="675" type="line"/>
      <point x="900" y="745" type="line"/>
      <point x="600" y="1045" type="line"/>
      <point x="300" y="745" type="line"/>
      <point x="370" y="675" type="line"/>
    </contour>
  </outline>
</glyph>
<glyph name="uniF640" format="2">
  <advance width="1200"/>
  <unicode hex="F640"/>
  <note>
uniF640
</note>
  <outline>
    <contour>
      <point x="785" y="480" type="line"/>
      <point x="715" y="410" type="line"/>
      <point x="415" y="710" type="line"/>
      <point x="715" y="1010" type="line"/>
      <point x="785" y="940" type="line"/>
      <point x="556" y="710" type="line"/>
      <point x="785" y="480" type="line"/>
    </contour>
  </outline>
</glyph>
<glyph name="uniF669" format="2">
  <advance width="1200"/>
  <unicode hex="F669"/>
  <note>
uniF669
</note>
  <outline>
    <contour>
      <point x="750" y="1111" type="line"/>
      <point x="1001" y="1111" type="line"/>
      <point x="1001" y="309" type="line"/>
      <point x="750" y="309" type="line"/>
      <point x="750" y="410" type="line"/>
      <point x="900" y="410" type="line"/>
      <point x="900" y="1010" type="line"/>
      <point x="750" y="1010" type="line"/>
      <point x="750" y="1111" type="line"/>
    </contour>
    <contour>
      <point x="199" y="1111" type="line"/>
      <point x="450" y="1111" type="line"/>
      <point x="450" y="1010" type="line"/>
      <point x="300" y="1010" type="line"/>
      <point x="300" y="410" type="line"/>
      <point x="450" y="410" type="line"/>
      <point x="450" y="309" type="line"/>
      <point x="199" y="309" type="line"/>
      <point x="199" y="1111" type="line"/>
    </contour>
  </outline>
</glyph>
<glyph name="uniF678" format="2">
  <advance width="1200"/>
  <unicode hex="F678"/>
  <note>
uniF678
</note>
  <outline>
    <contour>
      <point x="0" y="610" type="line"/>
      <point x="0" y="809" type="line"/>
      <point x="1200" y="809" type="line"/>
      <point x="1200" y="610" type="line"/>
      <point x="0" y="610" type="line"/>
    </contour>
  </outline>
</glyph>
<glyph name="uniF6D7" format="2">
  <advance width="1200"/>
  <unicode hex="F6D7"/>
  <note>
uniF6D7
</note>
  <outline>
    <contour>
      <point x="800" y="710" type="line"/>
      <point x="802" y="668"/>
      <point x="859" y="611"/>
      <point x="943" y="611"/>
      <point x="999" y="668"/>
      <point x="999" y="752"/>
      <point x="943" y="808"/>
      <point x="859" y="808"/>
      <point x="802" y="752"/>
      <point x="800" y="710" type="qcurve"/>
    </contour>
    <contour>
      <point x="500" y="710" type="line"/>
      <point x="502" y="668"/>
      <point x="559" y="611"/>
      <point x="643" y="611"/>
      <point x="699" y="668"/>
      <point x="699" y="752"/>
      <point x="643" y="808"/>
      <point x="559" y="808"/>
      <point x="502" y="752"/>
      <point x="500" y="710" type="qcurve"/>
    </contour>
    <contour>
      <point x="200" y="710" type="line"/>
      <point x="202" y="668"/>
      <point x="259" y="611"/>
      <point x="343" y="611"/>
      <point x="399" y="668"/>
      <point x="399" y="752"/>
      <point x="343" y="808"/>
      <point x="259" y="808"/>
      <point x="202" y="752"/>
      <point x="200" y="710" type="qcurve"/>
    </contour>
  </outline>
</glyph>
<glyph name="uniF6EA" format="2">
  <advance width="1200"/>
  <unicode hex="F6EA"/>
  <note>
uniF6EA
</note>
  <outline>
    <contour>
      <point x="1050" y="354" type="line"/>
      <point x="1050" y="539" type="line"/>
      <point x="661" y="764" type="line"/>
      <point x="473" y="654" type="line"/>
      <point x="150" y="841" type="line"/>
      <point x="150" y="354" type="line"/>
      <point x="1050" y="354" type="line"/>
    </contour>
    <contour>
      <point x="150" y="956" type="line"/>
      <point x="473" y="771" type="line"/>
      <point x="661" y="879" type="line"/>
      <point x="1050" y="654" type="line"/>
      <point x="1050" y="764" type="line"/>
      <point x="661" y="989" type="line"/>
      <point x="473" y="879" type="line"/>
      <point x="150" y="1066" type="line"/>
      <point x="150" y="956" type="line"/>
    </contour>
  </outline>
</glyph>
<glyph name="uniF720" format="2">
  <advance width="1200"/>
  <unicode hex="F720"/>
  <note>
uniF720
</note>
  <outline>
    <contour>
      <point x="300" y="1209" type="line"/>
      <point x="701" y="1209" type="line"/>
      <point x="1001" y="909" type="line"/>
      <point x="1001" y="309" type="line"/>
      <point x="998" y="267"/>
      <point x="942" y="211"/>
      <point x="900" y="211" type="qcurve" smooth="yes"/>
      <point x="300" y="211" type="line" smooth="yes"/>
      <point x="258" y="211"/>
      <point x="201" y="267"/>
      <point x="199" y="309" type="qcurve"/>
      <point x="199" y="1111" type="line"/>
      <point x="201" y="1153"/>
      <point x="258" y="1209"/>
      <point x="300" y="1209" type="qcurve"/>
    </contour>
    <contour>
      <point x="649" y="1134" type="line"/>
      <point x="649" y="860" type="line"/>
      <point x="926" y="860" type="line"/>
      <point x="649" y="1134" type="line"/>
    </contour>
    <contour>
      <point x="600" y="759" type="line"/>
      <point x="537" y="759"/>
      <point x="452" y="672"/>
      <point x="450" y="609" type="qcurve" smooth="yes"/>
      <point x="450" y="560" type="line"/>
      <point x="401" y="560" type="line"/>
      <point x="401" y="361" type="line"/>
      <point x="799" y="361" type="line"/>
      <point x="799" y="560" type="line"/>
      <point x="750" y="560" type="line"/>
      <point x="750" y="609" type="line" smooth="yes"/>
      <point x="747" y="675"/>
      <point x="663" y="759"/>
      <point x="600" y="759" type="qcurve"/>
    </contour>
    <contour>
      <point x="600" y="661" type="line"/>
      <point x="621" y="658"/>
      <point x="649" y="630"/>
      <point x="649" y="609" type="qcurve" smooth="yes"/>
      <point x="649" y="560" type="line"/>
      <point x="551" y="560" type="line"/>
      <point x="551" y="609" type="line" smooth="yes"/>
      <point x="551" y="630"/>
      <point x="579" y="658"/>
      <point x="600" y="661" type="qcurve"/>
    </contour>
  </outline>
</glyph>
<glyph name="uniF728" format="2">
  <advance width="1200"/>
  <unicode hex="F728"/>
  <note>
uniF728
</note>
  <outline>
    <contour>
      <point x="949" y="511" type="line"/>
      <point x="949" y="909" type="line"/>
      <point x="251" y="909" type="line"/>
      <point x="251" y="511" type="line"/>
      <point x="949" y="511" type="line"/>
    </contour>
    <contour>
      <point x="949" y="1160" type="line"/>
      <point x="991" y="1160"/>
      <point x="1050" y="1104"/>
      <point x="1050" y="1059" type="qcurve" smooth="yes"/>
      <point x="1050" y="361" type="line" smooth="yes"/>
      <point x="1050" y="318"/>
      <point x="991" y="260"/>
      <point x="949" y="260" type="qcurve" smooth="yes"/>
      <point x="251" y="260" type="line" smooth="yes"/>
      <point x="209" y="260"/>
      <point x="150" y="318"/>
      <point x="150" y="361" type="qcurve" smooth="yes"/>
      <point x="150" y="1059" type="line" smooth="yes"/>
      <point x="150" y="1104"/>
      <point x="206" y="1160"/>
      <point x="251" y="1160" type="qcurve" smooth="yes"/>
      <point x="949" y="1160" type="line"/>
    </contour>
  </outline>
</glyph>
<glyph name="uniF733" format="2">
  <advance width="1200"/>
  <unicode hex="F733"/>
  <note>
uniF733
</note>
  <outline>
    <contour>
      <point x="707" y="293" type="line"/>
      <point x="777" y="222" type="line"/>
      <point x="917" y="363" type="line"/>
      <point x="1060" y="222" type="line"/>
      <point x="1131" y="293" type="line"/>
      <point x="990" y="433" type="line"/>
      <point x="1131" y="574" type="line"/>
      <point x="1060" y="644" type="line"/>
      <point x="917" y="506" type="line"/>
      <point x="777" y="644" type="line"/>
      <point x="707" y="574" type="line"/>
      <point x="847" y="433" type="line"/>
      <point x="707" y="293" type="line"/>
    </contour>
    <contour>
      <point x="69" y="1233" type="line"/>
      <point x="69" y="1134" type="line"/>
      <point x="74" y="1134" type="line"/>
      <point x="418" y="787" type="line"/>
      <point x="418" y="389" type="line"/>
      <point x="617" y="187" type="line"/>
      <point x="617" y="787" type="line"/>
      <point x="964" y="1134" type="line"/>
      <point x="969" y="1134" type="line"/>
      <point x="969" y="1233" type="line"/>
      <point x="69" y="1233" type="line"/>
    </contour>
  </outline>
</glyph>
<glyph name="uniF735" format="2">
  <advance width="1200"/>
  <unicode hex="F735"/>
  <note>
uniF735
</note>
  <outline>
    <contour>
      <point x="300" y="661" type="line"/>
      <point x="300" y="759" type="line"/>
      <point x="900" y="759" type="line"/>
      <point x="900" y="661" type="line"/>
      <point x="300" y="661" type="line"/>
    </contour>
    <contour>
      <point x="150" y="1010" type="line"/>
      <point x="1050" y="1010" type="line"/>
      <point x="1050" y="909" type="line"/>
      <point x="150" y="909" type="line"/>
      <point x="150" y="1010" type="line"/>
    </contour>
    <contour>
      <point x="499" y="410" type="line"/>
      <point x="499" y="511" type="line"/>
      <point x="701" y="511" type="line"/>
      <point x="701" y="410" type="line"/>
      <point x="499" y="410" type="line"/>
    </contour>
  </outline>
</glyph>
<glyph name="uniF73E" format="2">
  <advance width="1200"/>
  <unicode hex="F73E"/>
  <note>
uniF73E
</note>
  <outline>
    <contour>
      <point x="300" y="1209" type="line"/>
      <point x="300" y="211" type="line"/>
      <point x="400" y="211" type="line"/>
      <point x="400" y="1209" type="line"/>
      <point x="300" y="1209" type="line"/>
    </contour>
    <contour>
      <point x="900" y="860" type="line"/>
      <point x="501" y="1139" type="line"/>
      <point x="501" y="581" type="line"/>
      <point x="900" y="860" type="line"/>
    </contour>
  </outline>
</glyph>
<glyph name="uniF740" format="2">
  <advance width="1200"/>
  <unicode hex="F740"/>
  <note>
uniF740
</note>
  <outline>
    <contour>
      <point x="349" y="1209" type="line"/>
      <point x="851" y="1209" type="line"/>
      <point x="649" y="811" type="line"/>
      <point x="851" y="811" type="line"/>
      <point x="499" y="211" type="line"/>
      <point x="499" y="661" type="line"/>
      <point x="349" y="661" type="line"/>
      <point x="349" y="1209" type="line"/>
    </contour>
  </outline>
</glyph>
<glyph name="uniF743" format="2">
  <advance width="1200"/>
  <unicode hex="F743"/>
  <note>
uniF743
</note>
  <outline>
    <contour>
      <point x="450" y="811" type="line"/>
      <point x="750" y="811" type="line"/>
      <point x="900" y="1059" type="line"/>
      <point x="300" y="1059" type="line"/>
      <point x="450" y="811" type="line"/>
    </contour>
    <contour>
      <point x="900" y="1111" type="line"/>
      <point x="900" y="1209" type="line"/>
      <point x="300" y="1209" type="line"/>
      <point x="300" y="1111" type="line"/>
      <point x="900" y="1111" type="line"/>
    </contour>
    <contour>
      <point x="450" y="211" type="line"/>
      <point x="750" y="211" type="line"/>
      <point x="750" y="759" type="line"/>
      <point x="450" y="759" type="line"/>
      <point x="450" y="211" type="line"/>
    </contour>
    <contour>
      <point x="600" y="661" type="line"/>
      <point x="621" y="658"/>
      <point x="649" y="630"/>
      <point x="649" y="588"/>
      <point x="621" y="560"/>
      <point x="578" y="560"/>
      <point x="550" y="588"/>
      <point x="550" y="630"/>
      <point x="578" y="658"/>
      <point x="600" y="661" type="qcurve"/>
    </contour>
  </outline>
</glyph>
<glyph name="uniF764" format="2">
  <advance width="1200"/>
  <unicode hex="F764"/>
  <note>
uniF764
</note>
  <outline>
    <contour>
      <point x="349" y="1109" type="line"/>
      <point x="1050" y="1109" type="line"/>
      <point x="1050" y="959" type="line"/>
      <point x="759" y="959" type="line"/>
      <point x="680" y="772" type="line"/>
      <point x="574" y="875" type="line"/>
      <point x="609" y="959" type="line"/>
      <point x="490" y="959" type="line"/>
      <point x="349" y="1100" type="line"/>
      <point x="349" y="1109" type="line"/>
    </contour>
    <contour>
      <point x="213" y="1109" type="line"/>
      <point x="949" y="374" type="line"/>
      <point x="886" y="310" type="line"/>
      <point x="602" y="594" type="line"/>
      <point x="525" y="411" type="line"/>
      <point x="375" y="411" type="line"/>
      <point x="497" y="699" type="line"/>
      <point x="150" y="1046" type="line"/>
      <point x="213" y="1109" type="line"/>
    </contour>
  </outline>
</glyph>
<glyph name="uniF770" format="2">
  <advance width="1200"/>
  <unicode hex="F770"/>
  <note>
uniF770
</note>
  <outline>
    <contour>
      <point x="189" y="1060" type="line"/>
      <point x="189" y="359" type="line"/>
      <point x="289" y="359" type="line"/>
      <point x="289" y="659" type="line"/>
      <point x="489" y="659" type="line"/>
      <point x="489" y="359" type="line"/>
      <point x="589" y="359" type="line"/>
      <point x="589" y="1060" type="line"/>
      <point x="489" y="1060" type="line"/>
      <point x="489" y="760" type="line"/>
      <point x="289" y="760" type="line"/>
      <point x="289" y="1060" type="line"/>
      <point x="189" y="1060" type="line"/>
    </contour>
    <contour>
      <point x="1011" y="889" type="line"/>
      <point x="939" y="959" type="line"/>
      <point x="690" y="709" type="line"/>
      <point x="939" y="460" type="line"/>
      <point x="1011" y="531" type="line"/>
      <point x="831" y="709" type="line"/>
      <point x="1011" y="889" type="line"/>
    </contour>
  </outline>
</glyph>
<glyph name="uniF771" format="2">
  <advance width="1200"/>
  <unicode hex="F771"/>
  <note>
uniF771
</note>
  <outline>
    <contour>
      <point x="175" y="1060" type="line"/>
      <point x="175" y="359" type="line"/>
      <point x="275" y="359" type="line"/>
      <point x="275" y="659" type="line"/>
      <point x="475" y="659" type="line"/>
      <point x="475" y="359" type="line"/>
      <point x="575" y="359" type="line"/>
      <point x="575" y="1060" type="line"/>
      <point x="475" y="1060" type="line"/>
      <point x="475" y="760" type="line"/>
      <point x="275" y="760" type="line"/>
      <point x="275" y="1060" type="line"/>
      <point x="175" y="1060" type="line"/>
    </contour>
    <contour>
      <point x="676" y="760" type="line"/>
      <point x="1025" y="760" type="line"/>
      <point x="1025" y="859" type="line"/>
      <point x="676" y="859" type="line"/>
      <point x="676" y="760" type="line"/>
    </contour>
    <contour>
      <point x="676" y="659" type="line"/>
      <point x="676" y="559" type="line"/>
      <point x="1025" y="559" type="line"/>
      <point x="1025" y="659" type="line"/>
      <point x="676" y="659" type="line"/>
    </contour>
  </outline>
</glyph>
<glyph name="uniF779" format="2">
  <advance width="1200"/>
  <unicode hex="F779"/>
  <note>
uniF779
</note>
  <outline>
    <contour>
      <point x="264" y="834" type="line"/>
      <point x="137" y="609" type="line"/>
      <point x="388" y="609" type="line"/>
      <point x="264" y="834" type="line"/>
    </contour>
    <contour>
      <point x="163" y="1111" type="line"/>
      <point x="163" y="909" type="line"/>
      <point x="362" y="909" type="line"/>
      <point x="362" y="1111" type="line"/>
      <point x="163" y="1111" type="line"/>
    </contour>
    <contour>
      <point x="264" y="309" type="line"/>
      <point x="221" y="311"/>
      <point x="163" y="368"/>
      <point x="163" y="452"/>
      <point x="221" y="508"/>
      <point x="306" y="508"/>
      <point x="362" y="452"/>
      <point x="362" y="368"/>
      <point x="306" y="311"/>
      <point x="264" y="309" type="qcurve"/>
    </contour>
    <contour>
      <point x="463" y="1059" type="line"/>
      <point x="1063" y="1059" type="line"/>
      <point x="1063" y="961" type="line"/>
      <point x="463" y="961" type="line"/>
      <point x="463" y="1059" type="line"/>
    </contour>
    <contour>
      <point x="463" y="361" type="line"/>
      <point x="463" y="459" type="line"/>
      <point x="1063" y="459" type="line"/>
      <point x="1063" y="361" type="line"/>
      <point x="463" y="361" type="line"/>
    </contour>
    <contour>
      <point x="463" y="661" type="line"/>
      <point x="463" y="759" type="line"/>
      <point x="1063" y="759" type="line"/>
      <point x="1063" y="661" type="line"/>
      <point x="463" y="661" type="line"/>
    </contour>
  </outline>
</glyph>
<glyph name="uniF77C" format="2">
  <advance width="1200"/>
  <unicode hex="F77C"/>
  <note>
uniF77C
</note>
  <outline>
    <contour>
      <point x="600" y="1060" type="line"/>
      <point x="401" y="1060" type="line"/>
      <point x="401" y="359" type="line"/>
      <point x="502" y="359" type="line"/>
      <point x="502" y="659" type="line"/>
      <point x="600" y="659" type="line" smooth="yes"/>
      <point x="687" y="662"/>
      <point x="799" y="774"/>
      <point x="799" y="945"/>
      <point x="687" y="1058"/>
      <point x="600" y="1060" type="qcurve"/>
    </contour>
    <contour>
      <point x="600" y="760" type="line"/>
      <point x="502" y="760" type="line"/>
      <point x="502" y="959" type="line"/>
      <point x="600" y="959" type="line" smooth="yes"/>
      <point x="642" y="959"/>
      <point x="701" y="901"/>
      <point x="701" y="817"/>
      <point x="642" y="760"/>
      <point x="600" y="760" type="qcurve"/>
    </contour>
  </outline>
</glyph>
<glyph name="uniF7DB" format="2">
  <advance width="1200"/>
  <unicode hex="F7DB"/>
  <note>
uniF7DB
</note>
  <outline>
    <contour>
      <point x="499" y="284" type="line"/>
      <point x="251" y="284" type="line"/>
      <point x="251" y="685" type="line"/>
      <point x="101" y="685" type="line"/>
      <point x="600" y="1135" type="line"/>
      <point x="1099" y="685" type="line"/>
      <point x="949" y="685" type="line"/>
      <point x="949" y="284" type="line"/>
      <point x="701" y="284" type="line"/>
      <point x="701" y="584" type="line"/>
      <point x="499" y="584" type="line"/>
      <point x="499" y="284" type="line"/>
    </contour>
  </outline>
</glyph>
<glyph name="uniF80D" format="2">
  <advance width="1200"/>
  <unicode hex="F80D"/>
  <note>
uniF80D
</note>
  <outline>
    <contour>
      <point x="300" y="399" type="line"/>
      <point x="300" y="500" type="line"/>
      <point x="900" y="500" type="line"/>
      <point x="900" y="399" type="line"/>
      <point x="300" y="399" type="line"/>
    </contour>
    <contour>
      <point x="600" y="880" type="line"/>
      <point x="370" y="650" type="line"/>
      <point x="300" y="720" type="line"/>
      <point x="600" y="1020" type="line"/>
      <point x="900" y="720" type="line"/>
      <point x="829" y="650" type="line"/>
      <point x="600" y="880" type="line"/>
    </contour>
  </outline>
</glyph>
<glyph name="uniF810" format="2">
  <advance width="1200"/>
  <unicode hex="F810"/>
  <note>
uniF810
</note>
  <outline>
    <contour>
      <point x="973" y="961" type="line"/>
      <point x="1074" y="961" type="line"/>
      <point x="1074" y="661" type="line"/>
      <point x="315" y="661" type="line"/>
      <point x="495" y="480" type="line"/>
      <point x="425" y="410" type="line"/>
      <point x="125" y="710" type="line"/>
      <point x="425" y="1010" type="line"/>
      <point x="495" y="940" type="line"/>
      <point x="315" y="759" type="line"/>
      <point x="973" y="759" type="line"/>
      <point x="973" y="961" type="line"/>
    </contour>
  </outline>
</glyph>
<glyph name="uniF87C" format="2">
  <advance width="1200"/>
  <unicode hex="F87C"/>
  <note>
uniF87C
</note>
  <outline>
    <contour>
      <point x="551" y="1258" type="line"/>
      <point x="551" y="862" type="line"/>
      <point x="199" y="862" type="line"/>
      <point x="204" y="1019"/>
      <point x="398" y="1237"/>
      <point x="551" y="1258" type="qcurve"/>
    </contour>
    <contour>
      <point x="199" y="562" type="line"/>
      <point x="199" y="761" type="line"/>
      <point x="1001" y="761" type="line"/>
      <point x="1001" y="562" type="line"/>
      <point x="996" y="391"/>
      <point x="771" y="166"/>
      <point x="600" y="161" type="qcurve"/>
      <point x="429" y="166"/>
      <point x="204" y="391"/>
      <point x="199" y="562" type="qcurve"/>
    </contour>
    <contour>
      <point x="649" y="1258" type="line"/>
      <point x="801" y="1237"/>
      <point x="996" y="1019"/>
      <point x="1001" y="862" type="qcurve"/>
      <point x="649" y="862" type="line"/>
      <point x="649" y="1258" type="line"/>
    </contour>
  </outline>
</glyph>
<glyph name="uniF88F" format="2">
  <advance width="1200"/>
  <unicode hex="F88F"/>
  <note>
uniF88F
</note>
  <outline>
    <contour>
      <point x="600" y="1184" type="line"/>
      <point x="975" y="270" type="line"/>
      <point x="940" y="235" type="line"/>
      <point x="600" y="385" type="line"/>
      <point x="260" y="235" type="line"/>
      <point x="225" y="270" type="line"/>
      <point x="600" y="1184" type="line"/>
    </contour>
  </outline>
</glyph>
<glyph name="uniF8C2" format="2">
  <advance width="1200"/>
  <unicode hex="F8C2"/>
  <note>
uniF8C2
</note>
  <outline>
    <contour>
      <point x="788" y="1160" type="line"/>
      <point x="1050" y="897" type="line"/>
      <point x="1050" y="522" type="line"/>
      <point x="788" y="260" type="line"/>
      <point x="413" y="260" type="line"/>
      <point x="150" y="522" type="line"/>
      <point x="150" y="897" type="line"/>
      <point x="413" y="1160" type="line"/>
      <point x="788" y="1160" type="line"/>
    </contour>
  </outline>
</glyph>
<glyph name="uniF8C5" format="2">
  <advance width="1200"/>
  <unicode hex="F8C5"/>
  <note>
uniF8C5
</note>
  <outline>
    <contour>
      <point x="175" y="410" type="line"/>
      <point x="175" y="1022" type="line"/>
      <point x="723" y="1209" type="line"/>
      <point x="1025" y="1134" type="line"/>
      <point x="1025" y="272" type="line"/>
      <point x="725" y="211" type="line"/>
      <point x="200" y="398" type="line"/>
      <point x="725" y="335" type="line"/>
      <point x="725" y="1059" type="line"/>
      <point x="374" y="961" type="line"/>
      <point x="374" y="473" type="line"/>
      <point x="175" y="410" type="line"/>
    </contour>
  </outline>
</glyph>
<glyph name="uniF8E3" format="2">
  <advance width="1200"/>
  <unicode hex="F8E3"/>
  <note>
uniF8E3
</note>
  <outline>
    <contour>
      <point x="700" y="361" type="line"/>
      <point x="700" y="1059" type="line"/>
      <point x="900" y="1059" type="line"/>
      <point x="900" y="361" type="line"/>
      <point x="700" y="361" type="line"/>
    </contour>
    <contour>
      <point x="300" y="361" type="line"/>
      <point x="300" y="1059" type="line"/>
      <point x="499" y="1059" type="line"/>
      <point x="499" y="361" type="line"/>
      <point x="300" y="361" type="line"/>
    </contour>
  </outline>
</glyph>
<glyph name="uniF8FE" format="2">
  <advance width="1200"/>
  <unicode hex="F8FE"/>
  <note>
uniF8FE
</note>
  <outline>
    <contour>
      <point x="199" y="1059" type="line"/>
      <point x="900" y="1059" type="line"/>
      <point x="900" y="961" type="line"/>
      <point x="799" y="961" type="line"/>
      <point x="799" y="511" type="line"/>
      <point x="801" y="490"/>
      <point x="829" y="461"/>
      <point x="872" y="461"/>
      <point x="900" y="490"/>
      <point x="900" y="511" type="qcurve"/>
      <point x="1001" y="511" type="line"/>
      <point x="998" y="445"/>
      <point x="914" y="361"/>
      <point x="785" y="361"/>
      <point x="701" y="445"/>
      <point x="701" y="511" type="qcurve" smooth="yes"/>
      <point x="701" y="961" type="line"/>
      <point x="401" y="961" type="line"/>
      <point x="401" y="361" type="line"/>
      <point x="300" y="361" type="line"/>
      <point x="300" y="961" type="line"/>
      <point x="199" y="961" type="line"/>
      <point x="199" y="1059" type="line"/>
    </contour>
  </outline>
</glyph>
